<svg width="72" height="72" viewBox="0 0 72 72" fill="none" xmlns="http://www.w3.org/2000/svg">
  <circle cx="36" cy="36" r="36" fill="#F2F3FA"/>
  <path d="M25.9633 27.3797H25.6359L25.505 27.6797L23.6894 31.8401L23.3839 32.5401H24.1476H30.7281C30.8433 32.5401 31.0484 32.671 31.0484 32.9799C31.0484 36.0023 33.2076 38.5801 36 38.5801C38.7924 38.5801 40.9516 36.0023 40.9516 32.9799C40.9516 32.671 41.1567 32.5401 41.2719 32.5401H47.8524H48.6162L48.3107 31.8401L46.4951 27.6797L46.3641 27.3797H46.0368H25.9633ZM48.3594 44.6204H48.8594V44.1204V33.9199V33.4199H48.3594H42.0372H41.5928L41.5407 33.8612C41.1615 37.0735 38.7729 39.4599 36 39.4599C33.2271 39.4599 30.8385 37.0735 30.4593 33.8612L30.4072 33.4198H29.9628H23.6406H23.1406V33.9198V44.1203V44.1204V44.6204H23.6406H48.3594ZM46.8192 26.7195L49.4551 32.7596C49.4839 32.8254 49.5 32.9011 49.5 32.9799V45.0602C49.5 45.3691 49.2949 45.5 49.1797 45.5H22.8203C22.7051 45.5 22.5 45.3691 22.5 45.0602V32.9799C22.5 32.9012 22.5161 32.8255 22.5448 32.7596C22.5448 32.7596 22.5449 32.7596 22.5449 32.7596L25.1807 26.7196C25.2522 26.5559 25.3726 26.5 25.4562 26.5H46.5437C46.6274 26.5 46.7478 26.556 46.8192 26.7195Z"
        fill="#494C57" stroke="#494C57"/>
</svg>
